<?xml version="1.0" encoding="utf-8"?>
<svg version="1.1" xmlns:xlink="http://www.w3.org/1999/xlink" width="32px" height="33px" xmlns="http://www.w3.org/2000/svg">
  <g transform="matrix(1 0 0 1 -13 -307 )">
    <path d="M 30.3841584158416 26.8329207920792  C 30.768882602546 26.787995049505  31.2667609618105 24.9378712871287  29.7278642149929 20.469801980198  C 29.0036775106082 18.3705445544554  28.1708628005658 16.6061881188119  26.8899575671853 13.7186881188119  C 27.0891089108911 6.13440594059406  23.5949080622348 0  15.5473833097595 0  C 7.40933521923621 0  3.99207920792079 6.25693069306931  4.20933521923621 13.7186881188119  C 2.92390381895333 16.6102722772277  2.09561527581329 18.3623762376238  1.37142857142857 20.469801980198  C -0.167468175388968 24.9419554455446  0.330410183875529 26.7920792079208  0.710608203677512 26.8329207920792  C 1.52531824611032 26.9227722772277  3.88345120226308 23.4675742574257  3.88345120226308 23.4675742574257  C 3.88345120226308 25.4688118811881  5.02404526166903 28.0785891089109  7.4953323903819 29.9613861386139  C 6.30042432814711 30.292202970297  3.61640735502122 31.1825495049505  4.25459688826026 32.1586633663366  C 4.77057991513437 32.9469059405941  13.1349363507779 32.6610148514851  15.5473833097595 32.4159653465346  C 17.9598302687412 32.6610148514851  26.3241867043847 32.9469059405941  26.8401697312588 32.1586633663366  C 27.4783592644979 31.1866336633663  24.7898161244696 30.292202970297  23.5994342291372 29.9613861386139  C 26.0707213578501 28.074504950495  27.211315417256 25.4647277227723  27.211315417256 23.4675742574257  C 27.211315417256 23.4675742574257  29.5694483734088 26.9227722772277  30.3841584158416 26.8329207920792  Z " fill-rule="nonzero" fill="#666666" stroke="none" fill-opacity="0.737254901960784" transform="matrix(1 0 0 1 13 307 )" />
  </g>
</svg>