<?xml version="1.0" encoding="utf-8"?>
<svg version="1.1" xmlns:xlink="http://www.w3.org/1999/xlink" width="36px" height="34px" xmlns="http://www.w3.org/2000/svg">
  <g transform="matrix(1 0 0 1 -11 -181 )">
    <path d="M 35.9232954545455 26.3451704545455  C 35.9744318181818 26.4578598484848  36 26.6268939393939  36 26.8522727272727  C 36 27.2869318181818  35.9147727272727 27.8544034090909  35.7443181818182 28.5546875  C 35.5738636363636 29.2549715909091  35.3948863636364 29.8063446969697  35.2073863636364 30.2088068181818  C 34.8494318181818 31.0137310606061  33.8096590909091 31.8669507575758  32.0880681818182 32.7684659090909  C 30.4857954545455 33.5894886363636  28.9005681818182 34  27.3323863636364 34  C 26.8721590909091 34  26.4204545454546 33.9718276515151  25.9772727272727 33.9154829545455  C 25.5340909090909 33.8591382575758  25.0440340909091 33.7585227272727  24.5071022727273 33.6136363636364  C 23.9701704545455 33.46875  23.5696022727273 33.3520359848485  23.3053977272727 33.2634943181818  C 23.0411931818182 33.1749526515151  22.5681818181818 33.0099431818182  21.8863636363636 32.7684659090909  C 21.2045454545455 32.5269886363636  20.7869318181818 32.3821022727273  20.6335227272727 32.3338068181818  C 18.9630681818182 31.7703598484848  17.4715909090909 31.1022727272727  16.1590909090909 30.3295454545455  C 13.9943181818182 29.0577651515152  11.7443181818182 27.3191287878788  9.40909090909091 25.1136363636364  C 7.07386363636364 22.9081439393939  5.23295454545455 20.7831439393939  3.88636363636364 18.7386363636364  C 3.06818181818182 17.499053030303  2.36079545454545 16.0904356060606  1.76420454545455 14.5127840909091  C 1.71306818181818 14.3678977272727  1.55965909090909 13.9734848484848  1.30397727272727 13.3295454545455  C 1.04829545454545 12.6856060606061  0.873579545454546 12.2388731060606  0.779829545454546 11.9893465909091  C 0.686079545454545 11.7398200757576  0.5625 11.3615056818182  0.409090909090909 10.8544034090909  C 0.255681818181818 10.3473011363636  0.149147727272727 9.8844696969697  0.0894886363636364 9.46590909090909  C 0.0298295454545455 9.04734848484848  0 8.62073863636364  0 8.18607954545454  C 0 6.70501893939394  0.434659090909091 5.20785984848485  1.30397727272727 3.69460227272727  C 2.25852272727273 2.0686553030303  3.16193181818182 1.08664772727273  4.01420454545455 0.748579545454544  C 4.44034090909091 0.571496212121209  5.02414772727273 0.402462121212118  5.765625 0.241477272727272  C 6.50710227272727 0.0804924242424228  7.10795454545455 0  7.56818181818182 0  C 7.80681818181818 0  7.98579545454546 0.024147727272728  8.10511363636364 0.0724431818181801  C 8.41193181818182 0.169034090909092  8.86363636363636 0.780776515151515  9.46022727272727 1.90767045454546  C 9.64772727272727 2.21354166666666  9.90340909090909 2.64820075757575  10.2272727272727 3.21164772727273  C 10.5511363636364 3.77509469696969  10.8494318181818 4.28622159090909  11.1221590909091 4.74502840909091  C 11.3948863636364 5.20383522727273  11.6590909090909 5.63446969696969  11.9147727272727 6.03693181818182  C 11.9659090909091 6.10132575757575  12.1150568181818 6.30255681818182  12.3622159090909 6.640625  C 12.609375 6.97869318181818  12.7926136363636 7.26444128787879  12.9119318181818 7.49786931818182  C 13.03125 7.73129734848485  13.0909090909091 7.96070075757575  13.0909090909091 8.18607954545454  C 13.0909090909091 8.50804924242424  12.8480113636364 8.91051136363636  12.3622159090909 9.39346590909091  C 11.8764204545455 9.87642045454546  11.3480113636364 10.3191287878788  10.7769886363636 10.7215909090909  C 10.2059659090909 11.124053030303  9.67755681818182 11.5506628787879  9.19176136363636 12.0014204545455  C 8.70596590909091 12.452178030303  8.46306818181818 12.8224431818182  8.46306818181818 13.1122159090909  C 8.46306818181818 13.2571022727273  8.50568181818182 13.4382102272727  8.59090909090909 13.6555397727273  C 8.67613636363637 13.8728693181818  8.74857954545455 14.0378787878788  8.80823863636364 14.1505681818182  C 8.86789772727273 14.2632575757576  8.98721590909091 14.4564393939394  9.16619318181818 14.7301136363636  C 9.34517045454546 15.0037878787879  9.44318181818182 15.1567234848485  9.46022727272727 15.1889204545455  C 10.7556818181818 17.3944128787879  12.2386363636364 19.2859848484848  13.9090909090909 20.8636363636364  C 15.5795454545455 22.4412878787879  17.5823863636364 23.8418560606061  19.9176136363636 25.0653409090909  C 19.9517045454545 25.0814393939394  20.1136363636364 25.1740056818182  20.4034090909091 25.3430397727273  C 20.6931818181818 25.5120738636364  20.8977272727273 25.6247632575758  21.0170454545455 25.6811079545455  C 21.1363636363636 25.7374526515152  21.3110795454545 25.8058712121212  21.5411931818182 25.8863636363636  C 21.7713068181818 25.9668560606061  21.9630681818182 26.0071022727273  22.1164772727273 26.0071022727273  C 22.4232954545455 26.0071022727273  22.8153409090909 25.7776988636364  23.2926136363636 25.3188920454545  C 23.7698863636364 24.8600852272727  24.2215909090909 24.3610321969697  24.6477272727273 23.8217329545455  C 25.0738636363636 23.2824337121212  25.5426136363636 22.7833806818182  26.0539772727273 22.3245738636364  C 26.5653409090909 21.8657670454545  26.9914772727273 21.6363636363636  27.3323863636364 21.6363636363636  C 27.5710227272727 21.6363636363636  27.8139204545455 21.6927083333333  28.0610795454545 21.8053977272727  C 28.3082386363636 21.9180871212121  28.6107954545455 22.0911458333333  28.96875 22.3245738636364  C 29.3267045454545 22.5580018939394  29.5397727272727 22.6988636363636  29.6079545454545 22.7471590909091  C 30.0340909090909 22.9886363636364  30.4900568181818 23.2381628787879  30.9758522727273 23.4957386363636  C 31.4616477272727 23.7533143939394  32.0028409090909 24.0350378787879  32.5994318181818 24.3409090909091  C 33.1960227272727 24.6467803030303  33.65625 24.8882575757576  33.9801136363636 25.0653409090909  C 35.1732954545455 25.6287878787879  35.8210227272727 26.0553977272727  35.9232954545455 26.3451704545455  Z " fill-rule="nonzero" fill="#bfbebe" stroke="none" fill-opacity="0.925490196078431" transform="matrix(1 0 0 1 11 181 )" />
  </g>
</svg>