<?xml version="1.0" encoding="utf-8"?>
<svg version="1.1" xmlns:xlink="http://www.w3.org/1999/xlink" width="36px" height="31px" xmlns="http://www.w3.org/2000/svg">
  <g transform="matrix(1 0 0 1 -11 -245 )">
    <path d="M 9.755859375 8.63279376498801  C 10.048828125 8.32923661071143  10.1953125 7.92346123101519  10.1953125 7.41546762589928  C 10.1953125 6.90747402078337  10.048828125 6.49860111910471  9.755859375 6.18884892086331  C 9.462890625 5.8790967226219  9.076171875 5.7242206235012  8.595703125 5.7242206235012  C 8.091796875 5.7242206235012  7.646484375 5.88219424460432  7.259765625 6.19814148681055  C 6.873046875 6.51408872901679  6.6796875 6.91986410871303  6.6796875 7.41546762589928  C 6.6796875 7.89868105515587  6.873046875 8.29826139088729  7.259765625 8.61420863309353  C 7.646484375 8.93015587529976  8.091796875 9.08812949640288  8.595703125 9.08812949640288  C 9.076171875 9.08812949640288  9.462890625 8.93635091926459  9.755859375 8.63279376498801  Z M 22.8076171875 17.7859712230216  C 23.1064453125 17.5133892885691  23.255859375 17.1974420463629  23.255859375 16.8381294964029  C 23.255859375 16.4912070343725  23.1064453125 16.1814548361311  22.8076171875 15.9088729016787  C 22.5087890625 15.6362909672262  22.125 15.5  21.65625 15.5  C 21.33984375 15.5  21.0498046875 15.6393884892086  20.7861328125 15.9181654676259  C 20.5224609375 16.1969424460432  20.390625 16.5035971223022  20.390625 16.8381294964029  C 20.390625 17.1850519584333  20.5224609375 17.4979016786571  20.7861328125 17.7766786570743  C 21.0498046875 18.0554556354916  21.33984375 18.1948441247002  21.65625 18.1948441247002  C 22.125 18.1948441247002  22.5087890625 18.058553157474  22.8076171875 17.7859712230216  Z M 18.6767578125 8.63279376498801  C 18.9638671875 8.32923661071143  19.107421875 7.92346123101519  19.107421875 7.41546762589928  C 19.107421875 6.90747402078337  18.9638671875 6.49860111910471  18.6767578125 6.18884892086331  C 18.3896484375 5.8790967226219  18.005859375 5.7242206235012  17.525390625 5.7242206235012  C 17.021484375 5.7242206235012  16.576171875 5.88219424460432  16.189453125 6.19814148681055  C 15.802734375 6.51408872901679  15.609375 6.91986410871303  15.609375 7.41546762589928  C 15.609375 7.89868105515587  15.802734375 8.29826139088729  16.189453125 8.61420863309353  C 16.576171875 8.93015587529976  17.021484375 9.08812949640288  17.525390625 9.08812949640288  C 18.005859375 9.08812949640288  18.3896484375 8.93635091926459  18.6767578125 8.63279376498801  Z M 29.8125 17.7859712230216  C 30.1171875 17.5133892885691  30.26953125 17.1974420463629  30.26953125 16.8381294964029  C 30.26953125 16.4912070343725  30.1171875 16.1814548361311  29.8125 15.9088729016787  C 29.5078125 15.6362909672262  29.126953125 15.5  28.669921875 15.5  C 28.353515625 15.5  28.0634765625 15.6393884892086  27.7998046875 15.9181654676259  C 27.5361328125 16.1969424460432  27.404296875 16.5035971223022  27.404296875 16.8381294964029  C 27.404296875 17.1850519584333  27.5361328125 17.4979016786571  27.7998046875 17.7766786570743  C 28.0634765625 18.0554556354916  28.353515625 18.1948441247002  28.669921875 18.1948441247002  C 29.126953125 18.1948441247002  29.5078125 18.058553157474  29.8125 17.7859712230216  Z M 23.1943359375 4.61840527577938  C 24.4306640625 6.06185051958433  25.23046875 7.67565947242206  25.59375 9.45983213429257  C 25.23046875 9.41027178257394  24.8203125 9.38549160671463  24.36328125 9.38549160671463  C 22.3828125 9.38549160671463  20.560546875 9.86250999200639  18.896484375 10.8165467625899  C 17.232421875 11.7705835331735  15.9228515625 13.0622501998401  14.9677734375 14.6915467625899  C 14.0126953125 16.3208433253397  13.53515625 18.1019184652278  13.53515625 20.0347721822542  C 13.53515625 21.0011990407674  13.669921875 21.9428457234213  13.939453125 22.8597122302158  C 13.529296875 22.8968824940048  13.130859375 22.9154676258993  12.744140625 22.9154676258993  C 12.439453125 22.9154676258993  12.146484375 22.906175059952  11.865234375 22.8875899280576  C 11.583984375 22.8690047961631  11.26171875 22.8287370103917  10.8984375 22.7667865707434  C 10.53515625 22.7048361310951  10.2744140625 22.6614708233413  10.1162109375 22.636690647482  C 9.9580078125 22.6119104716227  9.638671875 22.546862509992  9.158203125 22.4415467625899  C 8.677734375 22.3362310151878  8.384765625 22.2711830535572  8.279296875 22.2464028776978  L 3.83203125 24.6067146282974  L 5.09765625 20.5551558752998  C 1.69921875 18.0399680255795  0 15.0043964828137  0 11.4484412470024  C 0 9.35451638689049  0.5712890625 7.42785771382893  1.7138671875 5.66846522781774  C 2.8564453125 3.90907274180655  4.4033203125 2.52448041566746  6.3544921875 1.51468824940048  C 8.3056640625 0.504896083133491  10.435546875 0  12.744140625 0  C 14.806640625 0  16.7548828125 0.408872901678658  18.5888671875 1.22661870503597  C 20.4228515625 2.04436450839329  21.9580078125 3.17496003197442  23.1943359375 4.61840527577938  Z M 34.4970703125 14.9889088729017  C 35.4990234375 16.4943045563549  36 18.1266986410871  36 19.8860911270983  C 36 21.3357314148681  35.5986328125 22.7203237410072  34.7958984375 24.0398681055156  C 33.9931640625 25.359412470024  32.90625 26.5581534772182  31.53515625 27.6360911270983  L 32.501953125 31  L 29.00390625 28.9742206235012  C 27.24609375 29.4326538768985  25.96875 29.6618705035971  25.171875 29.6618705035971  C 23.19140625 29.6618705035971  21.369140625 29.2251199040767  19.705078125 28.351618705036  C 18.041015625 27.4781175059952  16.7314453125 26.2917665867306  15.7763671875 24.7925659472422  C 14.8212890625 23.2933653077538  14.34375 21.6578737010392  14.34375 19.8860911270983  C 14.34375 18.1143085531575  14.8212890625 16.4788169464428  15.7763671875 14.9796163069544  C 16.7314453125 13.480415667466  18.041015625 12.2940647482014  19.705078125 11.4205635491607  C 21.369140625 10.5470623501199  23.19140625 10.1103117505995  25.171875 10.1103117505995  C 27.05859375 10.1103117505995  28.833984375 10.5470623501199  30.498046875 11.4205635491607  C 32.162109375 12.2940647482014  33.4951171875 13.4835131894484  34.4970703125 14.9889088729017  Z " fill-rule="nonzero" fill="#9f9898" stroke="none" transform="matrix(1 0 0 1 11 245 )" />
  </g>
</svg>