<?xml version="1.0" encoding="utf-8"?>
<svg version="1.1" xmlns:xlink="http://www.w3.org/1999/xlink" width="100px" height="100px" xmlns="http://www.w3.org/2000/svg">
  <g transform="matrix(1 0 0 1 -953 -23 )">
    <path d="M 953 23  L 1053 23  L 1053 123  L 953 123  L 953 23  " fill-rule="nonzero" fill="#cccccc" stroke="none" />
    <path d="M 960 30  L 1046 30  L 1046 116  L 960 116  L 960 30  " fill-rule="nonzero" fill="#ffffff" stroke="none" />
    <path d="M 1012.5 53  C 1008.3 53  1005 49.7  1005 45.5  C 1005 41.3  1008.3 38  1012.5 38  C 1016.7 38  1020 41.3  1020 45.5  C 1020 49.7  1016.7 53  1012.5 53  " fill-rule="nonzero" fill="#cccccc" stroke="none" />
    <path d="M 963 114  L 963 69.45  L 983.25 49.2  L 1011.6 65.4  L 1027.8 61.35  L 1044 65.4  L 1044 114  L 963 114  " fill-rule="nonzero" fill="#169bd5" stroke="none" />
  </g>
</svg>