<?xml version="1.0" encoding="utf-8"?>
<svg version="1.1" xmlns:xlink="http://www.w3.org/1999/xlink" width="20px" height="24px" xmlns="http://www.w3.org/2000/svg">
  <g transform="matrix(1 0 0 1 -1395 -40 )">
    <path d="M 8.14630681818182 23.318335208099  C 8.55823863636364 23.0438695163105  8.76420454545455 22.8076490438695  8.76420454545455 22.6096737907762  C 8.76420454545455 22.5106861642295  8.70265151515152 22.2497187851519  8.57954545454545 21.8267716535433  C 8.45643939393939 21.4038245219348  8.30965909090909 20.9223847019123  8.13920454545455 20.3824521934758  C 7.96875 19.8425196850394  7.87405303030303 19.5320584926884  7.85511363636364 19.4510686164229  C 7.84564393939394 19.4150731158605  7.8219696969697 19.2958380202475  7.78409090909091 19.0933633295838  C 7.74621212121212 18.8908886389201  7.70596590909091 18.7289088863892  7.66335227272727 18.607424071991  C 7.62073863636364 18.4859392575928  7.55681818181818 18.3892013498313  7.47159090909091 18.3172103487064  C 7.32954545454545 18.1912260967379  7.08806818181818 18.1282339707537  6.74715909090909 18.1282339707537  C 6.52935606060606 18.1282339707537  6.19791666666667 18.1529808773903  5.75284090909091 18.2024746906637  C 5.30776515151515 18.251968503937  4.97159090909091 18.2767154105737  4.74431818181818 18.2767154105737  C 4.42234848484849 18.2767154105737  4.19981060606061 18.2272215973003  4.07670454545455 18.1282339707537  C 4.01988636363636 18.0832395950506  3.96780303030303 18.0134983127109  3.92045454545455 17.9190101237345  C 3.87310606060606 17.8245219347582  3.8375946969697 17.7345331833521  3.81392045454545 17.6490438695163  C 3.79024621212121 17.5635545556805  3.7594696969697 17.4555680539933  3.72159090909091 17.3250843644544  C 3.68371212121212 17.1946006749156  3.66003787878788 17.111361079865  3.65056818181818 17.0753655793026  C 3.30018939393939 15.9235095613048  3.125 14.7761529808774  3.125 13.6332958380202  C 3.125 12.4904386951631  3.30018939393939 11.3430821147357  3.65056818181818 10.1912260967379  C 3.66003787878788 10.1552305961755  3.68371212121212 10.0719910011249  3.72159090909091 9.94150731158605  C 3.7594696969697 9.81102362204724  3.79024621212121 9.70303712035996  3.81392045454545 9.61754780652419  C 3.8375946969697 9.53205849268841  3.87310606060606 9.44206974128234  3.92045454545455 9.34758155230596  C 3.96780303030303 9.25309336332958  4.01988636363636 9.18335208098987  4.07670454545455 9.13835770528684  C 4.19981060606061 9.03937007874016  4.42234848484849 8.98987626546682  4.74431818181818 8.98987626546682  C 4.97159090909091 8.98987626546682  5.30776515151515 9.01462317210349  5.75284090909091 9.06411698537683  C 6.19791666666667 9.11361079865017  6.52935606060606 9.13835770528684  6.74715909090909 9.13835770528684  C 7.08806818181818 9.13835770528684  7.32954545454545 9.07536557930259  7.47159090909091 8.94938132733408  C 7.55681818181818 8.87739032620922  7.62073863636364 8.78065241844769  7.66335227272727 8.65916760404949  C 7.70596590909091 8.5376827896513  7.74621212121212 8.37570303712036  7.78409090909091 8.17322834645669  C 7.8219696969697 7.97075365579303  7.84564393939394 7.85151856017997  7.85511363636364 7.81552305961755  C 7.87405303030303 7.73453318335208  7.96875 7.42407199100113  8.13920454545455 6.88413948256468  C 8.30965909090909 6.34420697412823  8.45643939393939 5.86276715410574  8.57954545454545 5.43982002249719  C 8.70265151515152 5.01687289088864  8.76420454545455 4.75590551181102  8.76420454545455 4.65691788526434  C 8.76420454545455 4.45894263217098  8.55823863636364 4.22272215973003  8.14630681818182 3.94825646794151  C 7.734375 3.67379077615298  7.37689393939394 3.48256467941507  7.07386363636364 3.37457817772778  C 6.8844696969697 3.30258717660292  6.67140151515151 3.2665916760405  6.43465909090909 3.2665916760405  C 6.11268939393939 3.2665916760405  5.64867424242424 3.34758155230596  5.04261363636364 3.50956130483689  C 4.50284090909091 3.66254218222722  4.04592803030303 3.84476940382452  3.671875 4.0562429696288  C 3.29782196969697 4.26771653543307  2.96164772727273 4.56467941507311  2.66335227272727 4.94713160854893  C 2.36505681818182 5.32958380202474  2.14725378787879 5.64454443194601  2.00994318181818 5.89201349831271  C 1.87263257575758 6.13948256467942  1.65719696969697 6.56467941507312  1.36363636363636 7.16760404949381  C 1.30681818181818 7.2755905511811  1.26420454545455 7.36107986501687  1.23579545454545 7.42407199100113  C 0.771780303030303 8.38695163104612  0.449810606060606 9.35883014623172  0.269886363636364 10.3397075365579  C 0.0899621212121212 11.3205849268841  0 12.4184476940382  0 13.6332958380202  C 0 14.8481439820022  0.0899621212121212 15.9460067491564  0.269886363636364 16.9268841394826  C 0.449810606060606 17.9077615298088  0.771780303030303 18.8796400449944  1.23579545454545 19.8425196850394  C 1.76609848484849 20.9403824521935  2.15909090909091 21.6647919010124  2.41477272727273 22.0157480314961  C 3.01136363636364 22.8346456692913  3.85890151515152 23.4060742407199  4.95738636363636 23.7300337457818  L 5.04261363636364 23.7570303712036  C 5.64867424242424 23.9190101237345  6.11268939393939 24  6.43465909090909 24  C 6.67140151515151 24  6.8844696969697 23.9640044994376  7.07386363636364 23.8920134983127  C 7.37689393939394 23.7840269966254  7.734375 23.5928008998875  8.14630681818182 23.318335208099  Z M 11.6619318181818 10.029246344207  C 11.4630681818182 10.2002249718785  11.25 10.2857142857143  11.0227272727273 10.2857142857143  C 10.7765151515152 10.2857142857143  10.563446969697 10.2002249718785  10.3835227272727 10.029246344207  C 10.2035984848485 9.85826771653543  10.1136363636364 9.65354330708661  10.1136363636364 9.41507311586052  C 10.1136363636364 9.17660292463442  10.2035984848485 8.9718785151856  10.3835227272727 8.80089988751406  C 10.7339015151515 8.46794150731158  10.9090909090909 8.06299212598425  10.9090909090909 7.58605174353206  C 10.9090909090909 7.11811023622047  10.7339015151515 6.70866141732283  10.3835227272727 6.35770528683915  C 10.2035984848485 6.1867266591676  10.1136363636364 5.98425196850394  10.1136363636364 5.75028121484814  C 10.1136363636364 5.51631046119235  10.2035984848485 5.31383577052868  10.3835227272727 5.14285714285714  C 10.563446969697 4.9718785151856  10.7765151515152 4.88638920134983  11.0227272727273 4.88638920134983  C 11.2689393939394 4.88638920134983  11.4820075757576 4.9718785151856  11.6619318181818 5.14285714285714  C 12.3721590909091 5.8177727784027  12.7272727272727 6.63217097862767  12.7272727272727 7.58605174353206  C 12.7272727272727 8.53993250843644  12.3721590909091 9.35433070866142  11.6619318181818 10.029246344207  Z M 14.2329545454545 12.4724409448819  C 14.0625 12.6434195725534  13.8494318181818 12.7289088863892  13.59375 12.7289088863892  C 13.3380681818182 12.7289088863892  13.125 12.6434195725534  12.9545454545455 12.4724409448819  C 12.7746212121212 12.3014623172103  12.6846590909091 12.0989876265467  12.6846590909091 11.8650168728909  C 12.6846590909091 11.6310461192351  12.7746212121212 11.4285714285714  12.9545454545455 11.2575928008999  C 14.0151515151515 10.2317210348706  14.5454545454545 9.00787401574803  14.5454545454545 7.58605174353206  C 14.5454545454545 6.16422947131608  14.0151515151515 4.94038245219348  12.9545454545455 3.91451068616423  C 12.7746212121212 3.74353205849269  12.6846590909091 3.54105736782902  12.6846590909091 3.30708661417323  C 12.6846590909091 3.07311586051743  12.7746212121212 2.87064116985377  12.9545454545455 2.69966254218223  C 13.1344696969697 2.52868391451068  13.3475378787879 2.44319460067491  13.59375 2.44319460067491  C 13.8399621212121 2.44319460067491  14.0530303030303 2.52868391451068  14.2329545454545 2.69966254218223  C 15.6534090909091 4.04949381327334  16.3636363636364 5.67829021372328  16.3636363636364 7.58605174353206  C 16.3636363636364 9.49381327334083  15.6534090909091 11.1226096737908  14.2329545454545 12.4724409448819  Z M 16.8039772727273 14.9156355455568  C 16.6335227272727 15.0866141732283  16.4204545454545 15.1721034870641  16.1647727272727 15.1721034870641  C 15.9090909090909 15.1721034870641  15.6960227272727 15.0866141732283  15.5255681818182 14.9156355455568  C 15.3456439393939 14.7446569178853  15.2556818181818 14.5421822272216  15.2556818181818 14.3082114735658  C 15.2556818181818 14.07424071991  15.3456439393939 13.8717660292463  15.5255681818182 13.7007874015748  C 16.3778409090909 12.8818897637795  17.0336174242424 11.9460067491564  17.4928977272727 10.8931383577053  C 17.952178030303 9.84026996625422  18.1818181818182 8.73790776152981  18.1818181818182 7.58605174353206  C 18.1818181818182 6.43419572553431  17.952178030303 5.3318335208099  17.4928977272727 4.27896512935883  C 17.0336174242424 3.22609673790776  16.3778409090909 2.29021372328459  15.5255681818182 1.47131608548932  C 15.3456439393939 1.30033745781777  15.2556818181818 1.0978627671541  15.2556818181818 0.863892013498313  C 15.2556818181818 0.629921259842518  15.3456439393939 0.427446569178851  15.5255681818182 0.256467941507312  C 15.7054924242424 0.0854893138357697  15.9185606060606 0  16.1647727272727 0  C 16.4109848484849 0  16.624053030303 0.0854893138357697  16.8039772727273 0.256467941507312  C 17.8361742424242 1.23734533183352  18.6268939393939 2.35770528683914  19.1761363636364 3.61754780652419  C 19.7253787878788 4.87739032620922  20 6.20022497187852  20 7.58605174353206  C 20 8.9718785151856  19.7253787878788 10.2947131608549  19.1761363636364 11.5545556805399  C 18.6268939393939 12.814398200225  17.8361742424242 13.9347581552306  16.8039772727273 14.9156355455568  Z " fill-rule="nonzero" fill="#fe0000" stroke="none" transform="matrix(1 0 0 1 1395 40 )" />
  </g>
</svg>